<svg xmlns="http://www.w3.org/2000/svg" viewBox="0 0 64 64" width="512" height="512">
  <circle cx="32" cy="32" r="32" fill="#FFA726"/>
  <rect x="20" y="14" width="24" height="36" rx="4" fill="white"/>
  <rect x="24" y="18" width="16" height="10" rx="2" fill="#FFA726"/>
  <path d="M29 20 C27 20, 26 21.5, 26 22.5 C26 24.5, 32 27, 32 27 C32 27, 38 24.5, 38 22.5 C38 21.5, 37 20, 35 20 C33.5 20, 32 21.5, 32 21.5 C32 21.5, 30.5 20, 29 20 Z" fill="white"/>
  <circle cx="26" cy="32" r="2" fill="#FFA726"/>
  <circle cx="32" cy="32" r="2" fill="#FFA726"/>
  <circle cx="38" cy="32" r="2" fill="#FFA726"/>
  <circle cx="26" cy="38" r="2" fill="#FFA726"/>
  <circle cx="32" cy="38" r="2" fill="#FFA726"/>
  <circle cx="38" cy="38" r="2" fill="#FFA726"/>
  <rect x="24" y="42" width="16" height="4" rx="2" fill="#FFA726"/>
</svg>